<svg xmlns="http://www.w3.org/2000/svg" width="49" height="49" viewBox="0 0 49 49" fill="none">
  <g clip-path="url(#clip0_126_64)">
    <path d="M44.5998 6.42395H4.6158C4.0069 6.42395 3.5133 6.91756 3.5133 7.52645V41.4688C3.5133 42.0776 4.0069 42.5713 4.6158 42.5713H44.5998C45.2087 42.5713 45.7023 42.0776 45.7023 41.4688V7.52645C45.7023 6.91756 45.2087 6.42395 44.5998 6.42395Z" fill="white"/>
    <path d="M44.59 43.311H4.6207C4.13246 43.3097 3.66459 43.1152 3.31935 42.77C2.97412 42.4248 2.77959 41.9569 2.7783 41.4686V7.53124C2.77959 7.04301 2.97412 6.57514 3.31935 6.2299C3.66459 5.88466 4.13246 5.69014 4.6207 5.68884H44.59C45.0778 5.69014 45.5451 5.88482 45.8896 6.2302C46.2341 6.57558 46.4275 7.04346 46.4275 7.53124V41.4686C46.4275 41.9564 46.2341 42.4243 45.8896 42.7697C45.5451 43.1151 45.0778 43.3097 44.59 43.311ZM4.6207 7.15884C4.52193 7.15884 4.42721 7.19808 4.35737 7.26792C4.28753 7.33775 4.2483 7.43248 4.2483 7.53124V41.4686C4.2483 41.5674 4.28753 41.6621 4.35737 41.732C4.42721 41.8018 4.52193 41.841 4.6207 41.841H44.59C44.6879 41.8398 44.7814 41.7999 44.8502 41.7303C44.9189 41.6606 44.9575 41.5666 44.9575 41.4686V7.53124C44.9575 7.43332 44.9189 7.33933 44.8502 7.26963C44.7814 7.19993 44.6879 7.16013 44.59 7.15884H4.6207Z" fill="#202020"/>
    <path d="M7.7812 10.4077C8.27643 10.4077 8.6779 10.0062 8.6779 9.51096C8.6779 9.01572 8.27643 8.61426 7.7812 8.61426C7.28596 8.61426 6.8845 9.01572 6.8845 9.51096C6.8845 10.0062 7.28596 10.4077 7.7812 10.4077Z" fill="#FF3839"/>
    <path d="M10.8388 10.4077C11.334 10.4077 11.7355 10.0062 11.7355 9.51096C11.7355 9.01572 11.334 8.61426 10.8388 8.61426C10.3436 8.61426 9.9421 9.01572 9.9421 9.51096C9.9421 10.0062 10.3436 10.4077 10.8388 10.4077Z" fill="#FF3839"/>
    <path d="M13.8915 10.4077C14.3867 10.4077 14.7882 10.0062 14.7882 9.51096C14.7882 9.01572 14.3867 8.61426 13.8915 8.61426C13.3963 8.61426 12.9948 9.01572 12.9948 9.51096C12.9948 10.0062 13.3963 10.4077 13.8915 10.4077Z" fill="#FF3839"/>
    <path d="M41.3609 10.2459H33.0309C32.836 10.2459 32.649 10.1684 32.5112 10.0306C32.3733 9.89276 32.2959 9.70581 32.2959 9.51088C32.2959 9.31594 32.3733 9.129 32.5112 8.99116C32.649 8.85332 32.836 8.77588 33.0309 8.77588H41.3609C41.5558 8.77588 41.7428 8.85332 41.8806 8.99116C42.0185 9.129 42.0959 9.31594 42.0959 9.51088C42.0959 9.70581 42.0185 9.89276 41.8806 10.0306C41.7428 10.1684 41.5558 10.2459 41.3609 10.2459Z" fill="#FF3839"/>
    <path d="M45.7023 11.5396H3.5133V13.0096H45.7023V11.5396Z" fill="#202020"/>
    <path d="M42.5908 14.9891H6.5709C6.32734 14.9891 6.1299 15.1866 6.1299 15.4301V19.8793C6.1299 20.1229 6.32734 20.3203 6.5709 20.3203H42.5908C42.8344 20.3203 43.0318 20.1229 43.0318 19.8793V15.4301C43.0318 15.1866 42.8344 14.9891 42.5908 14.9891Z" fill="white"/>
    <path d="M42.5908 20.8054H6.5709C6.32398 20.8054 6.08718 20.7074 5.91258 20.5328C5.73799 20.3582 5.6399 20.1214 5.6399 19.8744V15.4301C5.6399 15.1832 5.73799 14.9464 5.91258 14.7718C6.08718 14.5972 6.32398 14.4991 6.5709 14.4991H42.5908C42.8373 14.5004 43.0734 14.5989 43.2477 14.7733C43.422 14.9476 43.5205 15.1836 43.5218 15.4301V19.8744C43.5205 20.121 43.422 20.357 43.2477 20.5313C43.0734 20.7057 42.8373 20.8042 42.5908 20.8054ZM6.6199 19.8254H42.5418V15.4791H6.6199V19.8254Z" fill="#202020"/>
    <path d="M42.5859 23.4023H29.4735C29.2299 23.4023 29.0325 23.5998 29.0325 23.8433V39.6703C29.0325 39.9139 29.2299 40.1113 29.4735 40.1113H42.5859C42.8295 40.1113 43.0269 39.9139 43.0269 39.6703V23.8433C43.0269 23.5998 42.8295 23.4023 42.5859 23.4023Z" fill="white"/>
    <path d="M42.5908 40.6014H29.4784C29.2344 40.6014 29 40.5062 28.8251 40.336C28.6503 40.1657 28.5489 39.9339 28.5425 39.69V23.8434C28.5438 23.596 28.643 23.3592 28.8183 23.1847C28.9937 23.0103 29.231 22.9124 29.4784 22.9124H42.5908C42.8373 22.9136 43.0734 23.0121 43.2477 23.1865C43.422 23.3608 43.5205 23.5968 43.5218 23.8434V39.69C43.5154 39.9331 43.4147 40.1641 43.2409 40.3342C43.0671 40.5044 42.834 40.6002 42.5908 40.6014ZM29.5225 39.6214H42.5418V23.8924H29.5225V39.6214Z" fill="#202020"/>
    <path d="M25.2889 36.0345H12.1765C11.9329 36.0345 11.7355 36.232 11.7355 36.4755V38.8373C11.7355 39.0809 11.9329 39.2783 12.1765 39.2783H25.2889C25.5325 39.2783 25.7299 39.0809 25.7299 38.8373V36.4755C25.7299 36.232 25.5325 36.0345 25.2889 36.0345Z" fill="white"/>
    <path d="M25.2938 39.7635H12.1765C11.93 39.7622 11.6939 39.6637 11.5196 39.4893C11.3453 39.315 11.2468 39.079 11.2455 38.8325V36.4756C11.2468 36.229 11.3453 35.993 11.5196 35.8187C11.6939 35.6443 11.93 35.5458 12.1765 35.5446H25.2938C25.5403 35.5458 25.7764 35.6443 25.9507 35.8187C26.125 35.993 26.2235 36.229 26.2248 36.4756V38.8325C26.2235 39.079 26.125 39.315 25.9507 39.4893C25.7764 39.6637 25.5403 39.7622 25.2938 39.7635ZM12.25 38.7835H25.2448V36.5246H12.25V38.7835Z" fill="#202020"/>
    <path d="M25.7348 25.7887H17.4048C17.2099 25.7887 17.0229 25.7113 16.8851 25.5734C16.7472 25.4356 16.6698 25.2487 16.6698 25.0537C16.6698 24.8588 16.7472 24.6718 16.8851 24.534C17.0229 24.3962 17.2099 24.3187 17.4048 24.3187H25.7348C25.9297 24.3187 26.1167 24.3962 26.2545 24.534C26.3924 24.6718 26.4698 24.8588 26.4698 25.0537C26.4698 25.2487 26.3924 25.4356 26.2545 25.5734C26.1167 25.7113 25.9297 25.7887 25.7348 25.7887Z" fill="#FF3839"/>
    <path d="M25.7348 28.7042H8.4574C8.32744 28.7042 8.20281 28.6526 8.11092 28.5607C8.01902 28.4688 7.9674 28.3442 7.9674 28.2142C7.9674 28.0843 8.01902 27.9597 8.11092 27.8678C8.20281 27.7759 8.32744 27.7242 8.4574 27.7242H25.7348C25.8648 27.7242 25.9894 27.7759 26.0813 27.8678C26.1732 27.9597 26.2248 28.0843 26.2248 28.2142C26.2248 28.3442 26.1732 28.4688 26.0813 28.5607C25.9894 28.6526 25.8648 28.7042 25.7348 28.7042Z" fill="#FF3839"/>
    <path d="M25.7348 30.9484H8.4574C8.32744 30.9484 8.20281 30.8968 8.11092 30.8049C8.01902 30.713 7.9674 30.5883 7.9674 30.4584C7.9674 30.3284 8.01902 30.2038 8.11092 30.1119C8.20281 30.02 8.32744 29.9684 8.4574 29.9684H25.7348C25.8648 29.9684 25.9894 30.02 26.0813 30.1119C26.1732 30.2038 26.2248 30.3284 26.2248 30.4584C26.2248 30.5883 26.1732 30.713 26.0813 30.8049C25.9894 30.8968 25.8648 30.9484 25.7348 30.9484Z" fill="#FF3839"/>
    <path d="M25.7348 33.1289H12.9948C12.8648 33.1289 12.7402 33.0773 12.6483 32.9854C12.5564 32.8935 12.5048 32.7689 12.5048 32.6389C12.5048 32.509 12.5564 32.3843 12.6483 32.2924C12.7402 32.2006 12.8648 32.1489 12.9948 32.1489H25.7348C25.8648 32.1489 25.9894 32.2006 26.0813 32.2924C26.1732 32.3843 26.2248 32.509 26.2248 32.6389C26.2248 32.7689 26.1732 32.8935 26.0813 32.9854C25.9894 33.0773 25.8648 33.1289 25.7348 33.1289Z" fill="#FF3839"/>
    <path d="M42.1391 23.3045L29.3379 39.3748L30.1044 39.9854L42.9057 23.9151L42.1391 23.3045Z" fill="#202020"/>
    <path d="M29.7787 23.5485L29.0214 24.1705L42.1246 40.1226L42.8819 39.5006L29.7787 23.5485Z" fill="#202020"/>
    <path d="M43.0449 15.2095L5.68703 19.5782L5.74395 20.0649L43.1018 15.6962L43.0449 15.2095Z" fill="#202020"/>
    <path d="M5.74213 15.2207L5.68539 15.7074L43.0447 20.0631L43.1015 19.5764L5.74213 15.2207Z" fill="#202020"/>
  </g>
  <defs>
    <clipPath id="clip0_126_64">
      <rect width="49" height="49" fill="white"/>
    </clipPath>
  </defs>
</svg>